<?xml version="1.0" encoding="UTF-8" standalone="no"?>
<svg
   xmlns:dc="http://purl.org/dc/elements/1.1/"
   xmlns:cc="http://creativecommons.org/ns#"
   xmlns:rdf="http://www.w3.org/1999/02/22-rdf-syntax-ns#"
   xmlns:svg="http://www.w3.org/2000/svg"
   xmlns="http://www.w3.org/2000/svg"
   xmlns:sodipodi="http://sodipodi.sourceforge.net/DTD/sodipodi-0.dtd"
   xmlns:inkscape="http://www.inkscape.org/namespaces/inkscape"
   xml:space="preserve"
   inkscape:version="1.0 (4035a4fb49, 2020-05-01)"
   sodipodi:docname="cornertriangleleft.svg"
   id="SVGRoot"
   version="1.1"
   viewBox="0 0 250 250"
   height="250px"
   width="250px"><metadata
     id="metadata8"><rdf:RDF><cc:Work
         rdf:about=""><dc:format>image/svg+xml</dc:format><dc:type
           rdf:resource="http://purl.org/dc/dcmitype/StillImage" /><dc:title></dc:title></cc:Work></rdf:RDF></metadata><sodipodi:namedview
     inkscape:document-rotation="0"
     inkscape:current-layer="layer1"
     inkscape:window-maximized="0"
     inkscape:window-y="73"
     inkscape:window-x="772"
     inkscape:window-height="1259"
     inkscape:window-width="1649"
     inkscape:cy="380.91345"
     inkscape:cx="98.370762"
     inkscape:zoom="0.914906"
     showgrid="false"
     inkscape:document-units="px"
     inkscape:deskcolor="#d1d1d1"
     inkscape:pagecheckerboard="0"
     inkscape:pageopacity="0.0"
     inkscape:showpageshadow="2"
     borderopacity="0.25"
     bordercolor="#000000"
     pagecolor="#ffffff"
     id="namedview14" /><defs
     id="defs9" /><g
     id="layer1"
     inkscape:groupmode="layer"
     inkscape:label="Layer 1"><path
       sodipodi:nodetypes="cccc"
       id="path227"
       d="M 0,0 V 250 L 250,0 Z"
       style="fill:#292f36;fill-opacity:1;stroke-width:1" /><path
       style="fill:#ffffff;fill-opacity:0.1;stroke-width:0.183118"
       id="path4224"
       d="m 124.89287,38.184021 -16.02951,85.629709 c -0.29756,1.57908 -2.57088,1.5811 -2.86935,0.002 L 93.764044,57.198 85.395881,88.787229 c -0.434887,1.396146 -2.376777,1.396146 -2.812581,0 L 76.35021,64.376521 67.837392,100.43404 c -0.343334,1.53331 -2.497632,1.53331 -2.840048,0 L 56.720738,66.134542 50.220306,88.842167 c -0.434889,1.304583 -2.314521,1.318125 -2.772298,0.01458 L 31.498513,38.802125 C 30.376958,35.049854 33.192835,31.25 37.105913,31.25 h 82.033617 c 3.66588,0 6.44916,3.342042 5.75334,6.934979 z" /></g></svg>
